<svg xmlns="http://www.w3.org/2000/svg" xmlns:xlink="http://www.w3.org/1999/xlink" width="650" height="324.661" viewBox="0 0 650 324.661">
  <defs>
    <clipPath id="clip-path">
      <rect id="Rectangle_1" data-name="Rectangle 1" width="650" height="324.661" fill="none"/>
    </clipPath>
  </defs>
  <g id="Group_4" data-name="Group 4" transform="translate(-800 -461)">
    <g id="Group_2" data-name="Group 2" transform="translate(800 461)">
      <g id="Group_1" data-name="Group 1" clip-path="url(#clip-path)">
        <path id="Path_1" data-name="Path 1" d="M610.516,162.33l37.263-53.875a10.123,10.123,0,0,0-7.92-16.429H471.3a162.309,162.309,0,0,0-292.608,0H10.142A10.124,10.124,0,0,0,2.22,108.456L39.485,162.33l-37.322,54.1a10.123,10.123,0,0,0,8.092,16.205H178.695a162.309,162.309,0,0,0,292.606,0H639.746a10.124,10.124,0,0,0,8.093-16.205Z" transform="translate(0 -0.001)" fill="#dfbd68"/>
        <path id="Path_2" data-name="Path 2" d="M375.1,94.882a156.6,156.6,0,0,0-285.332,0Z" transform="translate(92.57 2.943)" fill="#fff"/>
        <path id="Path_3" data-name="Path 3" d="M89.765,111.674a156.6,156.6,0,0,0,285.33,0Z" transform="translate(92.57 115.164)" fill="#fff"/>
        <path id="Path_4" data-name="Path 4" d="M7.308,177.174a4.326,4.326,0,0,1-3.4-7l37.785-54.771a4.522,4.522,0,0,0,0-5.482L3.905,55.3a4.326,4.326,0,0,1,3.289-7.138H636.912A4.327,4.327,0,0,1,640.2,55.3l-37.785,54.626a4.516,4.516,0,0,0,0,5.482L640.2,170.176a4.327,4.327,0,0,1-3.4,7Z" transform="translate(2.948 49.664)" fill="#00665e"/>
        <path id="Path_5" data-name="Path 5" d="M303.319,73.837a114.62,114.62,0,0,0-190.117,0Z" transform="translate(116.74 23.988)" fill="#dfbd68"/>
        <path id="Path_6" data-name="Path 6" d="M113.542,111.674a114.57,114.57,0,0,0,188.736,0Z" transform="translate(117.09 115.164)" fill="#dfbd68"/>
        <path id="Path_7" data-name="Path 7" d="M227.423,106.923c-.384,5.59-4.7,8.385-10.248,8.385-4.467,0-7.678-2.492-7.678-4.97,0-3.638,2.838-4.761,8.281-5.789a47.994,47.994,0,0,0,9.644-2.592ZM250.9,92c0-10.341.248-21-30.39-21-15.222,0-32.275,2.478-33,17.589h22.724c.136-2.273,1.609-5.48,9.149-5.48,3.961,0,8.04,1.332,8.04,4.956,0,3.433-3.345,4.272-6.675,4.782-12.486,1.976-36.221,1.359-36.221,18.322,0,11.286,10.262,16.242,22.618,16.242,7.916,0,15.456-1.454,20.652-6.407h.248a11.993,11.993,0,0,0,.859,5.056h24.98c-2.732-3.415-2.98-7.954-2.98-11.99Z" transform="translate(190.293 73.211)" fill="#fff"/>
        <path id="Path_8" data-name="Path 8" d="M41.277,135.6H68.471V113.283H84.545c20.27,0,34.608-8.381,34.608-26.321,0-10.532-8.4-25.234-32.382-25.234H41.277ZM68.471,80.649H80.584c6.669,0,12.866.412,12.866,7.132,0,7.455-7.436,7.863-14.471,7.863H68.471Z" transform="translate(42.567 63.657)" fill="#fff"/>
        <path id="Path_9" data-name="Path 9" d="M103.635,93.142c1.113-5.809,5.324-9.017,12.616-9.017,6.307,0,10.747,4.044,10.747,9.017Zm46.853,10.676c0-20.928-10.993-32.825-36.461-32.825-20.28,0-33.867,12.72-33.867,28.383,0,17.879,15.44,28.027,35.967,28.027,14.588,0,28.06-5.383,33-16.957H126.275c-1.985,2.576-6.333,3.825-10.27,3.825-7.684,0-11.867-4.359-12.486-10.453Z" transform="translate(82.665 73.212)" fill="#fff"/>
        <path id="Path_10" data-name="Path 10" d="M151.048,63.611H126.575V79.956H115.7V92.575h10.875v25.683c0,14.69,11.491,16.037,21.873,16.037,5.19,0,10.755-.636,15.7-.636v-15.5a50.6,50.6,0,0,1-5.566.309c-6.173,0-7.534-2.171-7.534-7.124V92.575h13.1V79.956h-13.1Z" transform="translate(119.316 65.599)" fill="#fff"/>
        <path id="Path_11" data-name="Path 11" d="M142.654,111.679c.248,23.589,28.8,26.591,38.821,26.591,19.632,0,40.79-6.214,40.79-25.46,0-13.575-12.37-18.45-24.852-21.344s-25.094-4.016-25.582-9.293c0-4.152,6.047-4.975,9.756-4.975a16.055,16.055,0,0,1,8.025,1.865c2.234,1.249,3.717,3.11,3.222,5.893h25.714c-.743-18-17.674-24.093-36.843-24.093-18.174,0-35.6,7.337-35.6,24.416,0,14.877,15.943,18.1,29.922,21.434,15.2,3.62,19.029,4.662,19.029,8.489,0,5.466-6.795,6.711-11.251,6.711-5.062,0-11-.922-12.974-5.383a11.686,11.686,0,0,1-1-4.851Z" transform="translate(147.112 62.765)" fill="#fff"/>
        <path id="Path_12" data-name="Path 12" d="M230.071,135.6h24.487V94.511H266.9V81.9H254.052c-.374-4.973,1.609-6.4,7.534-6.4a58.949,58.949,0,0,1,5.939.715V62.135c-3.7-.108-7.294-.406-11.013-.406-9.876,0-16.055.611-21.377,5.074-4.69,3.918-5.3,9.817-5.064,15.092h-10V94.511h10Z" transform="translate(226.944 63.658)" fill="#fff"/>
        <path id="Path_13" data-name="Path 13" d="M267.581,93.142c1.113-5.809,5.3-9.017,12.6-9.017,6.3,0,10.758,4.044,10.758,9.017Zm46.843,10.676c0-20.928-11-32.825-36.469-32.825-20.264,0-33.855,12.72-33.855,28.383,0,17.879,15.448,28.027,35.959,28.027,14.582,0,28.06-5.383,33.008-16.957H290.193c-1.972,2.576-6.3,3.825-10.266,3.825-7.66,0-11.858-4.359-12.476-10.453Z" transform="translate(251.728 73.212)" fill="#fff"/>
        <path id="Path_14" data-name="Path 14" d="M283.426,69.152a7.9,7.9,0,1,1-7.684,7.9,7.789,7.789,0,0,1,7.684-7.9m0,14.328a6.438,6.438,0,1,0-6.1-6.429,6.214,6.214,0,0,0,6.1,6.429m-2.641-10.54h3.138a2.386,2.386,0,0,1,2.576,2.488,2.164,2.164,0,0,1-1.493,2.165v.043a2.219,2.219,0,0,1,.28.455l1.558,3.008h-1.686l-1.517-3.161h-1.318V81.1h-1.538Zm2.836,3.874a1.258,1.258,0,0,0,1.32-1.385,1.217,1.217,0,0,0-1.32-1.32h-1.3v2.706Z" transform="translate(284.359 71.313)" fill="#fff"/>
        <path id="Path_15" data-name="Path 15" d="M123.841,37.965A8.738,8.738,0,0,0,129.2,36.71c.857-.634,1.534-1.653.776-2.673-1.495-2.015-9.078,3.725-12.949-1.491C114.7,29.418,115.8,25.4,119.165,22.9a9.585,9.585,0,0,1,6.88-2.129l.762,4.694a8.043,8.043,0,0,0-4.855,1.288c-.855.634-1.519,1.716-.817,2.665,1.584,2.135,8.935-3.914,12.915,1.444,2.1,2.821,1.753,6.866-2.066,9.7A10.907,10.907,0,0,1,124,42.739Z" transform="translate(119.407 21.366)" fill="#00665e"/>
        <path id="Path_16" data-name="Path 16" d="M139.79,29.507,133.9,32.442l.837,4.53-4.757,2.368-2.986-22.094,4.863-2.421,15.832,15.7-4.757,2.366Zm-8.249-9.151s.6,2.273.851,3.632l.745,4.215,3.727-1.857L133.978,23.2c-.936-1.02-2.385-2.87-2.385-2.87Z" transform="translate(130.959 15.288)" fill="#00665e"/>
        <path id="Path_17" data-name="Path 17" d="M137.03,13.547l12.4-3.67,1.257,4.245-7.445,2.2,1.257,4.247,6.171-1.828,1.257,4.247-6.171,1.826,2.22,7.5-4.954,1.469Z" transform="translate(141.312 10.185)" fill="#00665e"/>
        <path id="Path_18" data-name="Path 18" d="M148.159,9.7l13.128-1.615.54,4.4-8,.983.467,3.811,6.39-.786.54,4.4-6.388.786.485,3.955,8.411-1.034.54,4.4-13.538,1.666Z" transform="translate(152.789 8.336)" fill="#00665e"/>
        <path id="Path_19" data-name="Path 19" d="M167.852,8.168l8.688,1.19c4.067.555,6.411,3.916,5.834,8.129s-3.744,6.88-7.81,6.325l-3.569-.49-.886,6.467-5.121-.7Zm6.258,11.111a2.571,2.571,0,0,0,3.055-2.5c.229-1.67-.494-2.929-2.19-3.163l-2.6-.355-.778,5.675Z" transform="translate(170.144 8.423)" fill="#00665e"/>
        <path id="Path_20" data-name="Path 20" d="M182.246,10.448,194.84,14.49l-1.353,4.217-7.676-2.464L184.639,19.9l6.128,1.968-1.353,4.215-6.13-1.966-1.217,3.794,8.066,2.59-1.353,4.217-12.986-4.168Z" transform="translate(181.288 10.774)" fill="#00665e"/>
        <path id="Path_21" data-name="Path 21" d="M195.051,21l-5.667-2.986,2.064-3.916,15.907,8.377-2.064,3.918-5.667-2.986-7.774,14.757-4.57-2.407Z" transform="translate(193.131 14.538)" fill="#00665e"/>
        <path id="Path_22" data-name="Path 22" d="M199.546,32.237a8.746,8.746,0,0,0,2.669,4.81c.841.648,2.007,1.022,2.781.016,1.53-1.989-6.059-7.715-2.1-12.864,2.377-3.087,6.539-3.126,9.864-.569a9.569,9.569,0,0,1,3.922,6.035l-4.306,2.015a8.051,8.051,0,0,0-2.563-4.318c-.841-.648-2.066-.993-2.787-.059-1.619,2.106,6.2,7.53,2.135,12.817-2.143,2.785-6.126,3.557-9.894.658A10.9,10.9,0,0,1,195,33.693Z" transform="translate(201.092 22.473)" fill="#00665e"/>
        <path id="Path_23" data-name="Path 23" d="M119.849,118.953l3.549,3.754-6.047,5.718L122.624,134l6.047-5.718,3.549,3.754L117.1,146.333l-3.549-3.754,5.919-5.6L114.2,131.4l-5.919,5.6-3.549-3.754Z" transform="translate(108.005 122.671)" fill="#00665e"/>
        <path id="Path_24" data-name="Path 24" d="M126.331,145.244,121.06,141.3l-3.63,2.736-4.258-3.181,18.206-12.372,4.351,3.252-6.715,20.96-4.255-3.181Zm4.359-11.351s-1.737,1.536-2.83,2.356l-3.392,2.515,3.333,2.49,1.479-3.947c.475-1.278,1.456-3.38,1.456-3.38Z" transform="translate(116.71 132.501)" fill="#00665e"/>
        <path id="Path_25" data-name="Path 25" d="M133.324,132.88l7.757,4.093c3.63,1.913,4.7,5.836,2.744,9.543s-5.822,5.088-9.453,3.173l-3.187-1.68-3,5.688-4.57-2.409Zm2.145,12.452a2.548,2.548,0,0,0,3.707-1.27,2.48,2.48,0,0,0-1-3.683l-2.324-1.227-2.635,4.995Z" transform="translate(127.478 137.033)" fill="#00665e"/>
        <path id="Path_26" data-name="Path 26" d="M140.319,137.12l8.3,2.846c3.884,1.33,5.547,5.04,4.186,9s-4.968,5.927-8.85,4.6l-3.408-1.168-2.088,6.084-4.887-1.676Zm4.044,11.972a2.548,2.548,0,0,0,3.465-1.828,2.482,2.482,0,0,0-1.552-3.486l-2.484-.851-1.834,5.34Z" transform="translate(137.741 141.405)" fill="#00665e"/>
        <path id="Path_27" data-name="Path 27" d="M149.407,153.081l-4.735-13.3,5.787,1.016,1.489,5.344c.42,1.523.731,3.171.731,3.171l.057.012s.855-1.446,1.771-2.734l3.193-4.52,5.787,1.016-8.99,10.89-1.479,8.4-5.088-.9Z" transform="translate(149.193 144.148)" fill="#00665e"/>
        <path id="Path_28" data-name="Path 28" d="M159.088,141.789l8.763-.347c4.1-.163,6.992,2.693,7.156,6.882s-2.488,7.323-6.587,7.485l-3.6.144.254,6.427-5.163.2Zm8.1,9.7a2.549,2.549,0,0,0,2.572-2.958,2.481,2.481,0,0,0-2.706-2.687l-2.628.106.225,5.641Z" transform="translate(164.059 145.855)" fill="#00665e"/>
        <path id="Path_29" data-name="Path 29" d="M168.585,142.273l12.99-2.488.819,4.288-7.914,1.513.709,3.715,6.321-1.209.819,4.286-6.319,1.209.737,3.857,8.322-1.592.817,4.286L172.491,162.7Z" transform="translate(173.853 144.154)" fill="#00665e"/>
        <path id="Path_30" data-name="Path 30" d="M185.269,137.846c5.968-2.251,11.972.461,14.077,6.041a11.042,11.042,0,0,1-20.662,7.792c-2.1-5.58.62-11.584,6.585-13.833m5.941,15.762c2.955-1.113,4.385-4.515,3.134-7.837a5.7,5.7,0,1,0-10.662,4.022c1.251,3.321,4.572,4.93,7.528,3.815" transform="translate(183.541 141.337)" fill="#00665e"/>
        <path id="Path_31" data-name="Path 31" d="M188.447,137.461l7.542-4.479c3.528-2.1,7.432-.963,9.571,2.639s1.3,7.621-2.228,9.718l-3.1,1.84,3.287,5.527-4.444,2.641Zm11.741,4.668a2.547,2.547,0,0,0,.853-3.823,2.48,2.48,0,0,0-3.66-1.075l-2.261,1.343L198,143.427Z" transform="translate(194.336 136.057)" fill="#00665e"/>
        <path id="Path_32" data-name="Path 32" d="M196.5,131.245l4.014-3.256,10.359,12.77,6.7-5.432,2.75,3.392L209.6,147.406Z" transform="translate(202.638 131.989)" fill="#00665e"/>
        <path id="Path_33" data-name="Path 33" d="M202.967,129.026l9.027-9.671,3.191,2.978-5.5,5.895,2.767,2.582,4.392-4.706,3.191,2.98-4.392,4.7,2.872,2.683,5.783-6.2,3.191,2.978-9.307,9.973Z" transform="translate(209.31 123.085)" fill="#00665e"/>
      </g>
    </g>
  </g>
</svg>
